<svg preserveAspectRatio="none" width="100%" height="100%" overflow="visible" style="display: block;" viewBox="0 0 231.999 51" fill="none" xmlns="http://www.w3.org/2000/svg">
<path id="Union" d="M25.5376 0C32.0739 9.90814e-05 38.6105 2.4889 43.5962 7.46875H43.5981C53.5714 17.4271 53.5714 33.5729 43.5981 43.5312C38.6106 48.5113 32.0751 51 25.5386 51C19.0022 50.9999 12.4656 48.5111 7.47996 43.5312C-2.49332 33.5729 -2.49332 17.4271 7.47996 7.46875C12.4657 2.4888 19.0011 0 25.5376 0ZM25.5386 2.83105C19.4732 2.83116 13.7727 5.18835 9.48387 9.4707C5.19701 13.7531 2.83445 19.4466 2.83445 25.501C2.83448 31.5554 5.1952 37.2489 9.48387 41.5312C13.7727 45.8118 19.4732 48.1708 25.5386 48.1709C31.604 48.1709 37.3044 45.8136 41.5932 41.5312C45.8803 37.2488 48.2426 31.5555 48.2427 25.501C48.2427 19.4464 45.8821 13.7531 41.5932 9.4707C37.3044 5.19002 31.604 2.83105 25.5386 2.83105ZM25.5376 4.80078C36.9874 4.80099 46.271 14.0683 46.271 25.501C46.2709 36.9337 36.9885 46.2012 25.5386 46.2012C14.0888 46.201 4.80716 36.9336 4.80711 25.501C4.80711 20.0946 6.88573 15.1743 10.2837 11.4873C10.3383 11.4274 10.3981 11.3675 10.4546 11.3076C14.2336 7.30351 19.5921 4.80078 25.5376 4.80078ZM10.2817 33.502H17.5346V33.5078L11.0952 37.3984C11.4974 37.8846 11.9245 38.3479 12.3725 38.79L17.5346 35.8398V42.4033C18.1185 42.6816 18.7198 42.9269 19.3354 43.1436H19.5298V35.8379L26.6929 40.1641L26.7036 40.1699L26.7827 40.2188V37.8867L19.5317 33.5059V29.9873H17.5346V31.5078H12.2788V28.1045H24.7856V31.5078H20.7934V33.502H26.7827V26.1123H10.2817V33.502ZM29.7622 38.1738H28.2261V40.168H30.5268L37.3052 33.7139H42.3647C42.6805 33.0692 42.9609 32.4031 43.2026 31.7197H36.5405L29.7622 38.1738ZM173.207 14.8838C176.013 13.2332 179.314 12.8132 182.509 13.3398C184.109 13.6041 185.6 14.1189 186.981 14.8867C187.002 14.8989 187.013 14.9255 187.004 14.9482L185.946 17.8887C185.94 17.9028 185.925 17.9115 185.909 17.9062H185.905C184.654 17.2899 183.34 16.8478 181.964 16.5801C180.648 16.3247 179.256 16.37 177.973 16.6113C176.29 16.9284 174.698 17.6866 173.465 18.8457C171.326 20.8591 170.59 23.7623 170.792 26.6211C170.944 28.7454 171.842 30.812 173.375 32.2441C174.933 33.6992 176.936 34.4918 179.053 34.6592C179.177 34.6697 179.44 34.684 179.845 34.7051C180.062 34.7156 180.318 34.7153 180.609 34.7012C181.951 34.6378 183.373 34.4387 184.61 33.7588C184.635 33.7447 184.649 33.7198 184.649 33.6934V29.0137C184.649 28.991 184.632 28.9729 184.609 28.9727H179.866C179.845 28.9724 179.83 28.9565 179.83 28.9355V25.8174H179.831C179.831 25.8072 179.84 25.798 179.85 25.7979H187.927C187.941 25.798 187.951 25.8094 187.952 25.8232V35.5508C187.952 35.6035 187.927 35.6531 187.886 35.6865C187.641 35.8819 187.396 36.0455 187.151 36.1758C185.582 37.0143 183.814 37.5326 182.031 37.8232C181.546 37.9025 181.061 37.9478 180.578 37.9619C179.772 37.9848 179.027 37.962 178.342 37.8916C174.692 37.5199 171.305 35.7935 169.293 32.7373C168.06 30.8648 167.469 28.7346 167.386 26.4922C167.344 25.3474 167.428 24.2075 167.638 23.0732C168.268 19.6754 170.226 16.6366 173.207 14.8838ZM97.1938 13.3965C97.2041 13.3966 97.2111 13.4055 97.2114 13.4141C97.2114 13.4176 97.209 13.4232 97.2055 13.4268L87.1958 23.792C87.1748 23.813 87.1728 23.8463 87.1899 23.8691L97.7651 37.6699H97.769C97.7759 37.6804 97.7736 37.6924 97.7632 37.7012C97.7597 37.7046 97.7547 37.707 97.7495 37.707H93.727C93.6671 37.707 93.6107 37.6783 93.5737 37.6309L84.7856 25.9658C84.7715 25.9484 84.7465 25.945 84.729 25.959C84.7284 25.9595 84.7272 25.9607 84.7261 25.9619L82.7622 27.8506C82.7235 27.8875 82.7008 27.9387 82.7007 27.9932V37.6748C82.7007 37.6942 82.6841 37.708 82.6665 37.708H79.4507C79.4208 37.708 79.3942 37.6839 79.394 37.6523V13.4268C79.3942 13.4111 79.4066 13.3985 79.4223 13.3984H82.6636C82.6827 13.3986 82.6985 13.4145 82.6987 13.4336C82.704 17.3158 82.704 20.5924 82.6987 23.2646C82.6987 23.5851 82.6804 23.938 82.647 24.3184C82.647 24.3252 82.651 24.332 82.6577 24.334C82.663 24.334 82.6688 24.3342 82.6723 24.3271C82.8574 24.0543 82.9652 23.8656 83.1821 23.6367C86.5323 20.1366 89.8139 16.721 92.977 13.4199C92.991 13.406 93.0087 13.3966 93.0278 13.3965H97.1938ZM131.921 12.5352C131.978 12.3999 132.048 12.3362 132.173 12.3975C132.191 12.4062 132.207 12.4212 132.214 12.4404L142.815 37.6631C142.822 37.6789 142.815 37.6961 142.799 37.7031C142.796 37.7032 142.792 37.7051 142.787 37.7051H139.126C139.096 37.705 139.07 37.6873 139.059 37.6592L136.591 31.3828C136.575 31.3442 136.538 31.3174 136.496 31.3174H127.263C127.244 31.3175 127.224 31.3303 127.217 31.3477L124.644 37.6631C124.633 37.6894 124.608 37.7051 124.58 37.7051H121.414C121.4 37.705 121.388 37.6945 121.388 37.6807C121.388 37.6774 121.389 37.6737 121.39 37.6719C124.901 29.2938 128.412 20.915 131.921 12.5352ZM231.513 13.3984C231.53 13.3987 231.544 13.4126 231.544 13.4297V16.5098C231.544 16.527 231.53 16.5408 231.513 16.541H219.018C219.001 16.5412 218.987 16.5559 218.987 16.5732V23.8799C218.987 23.8974 219.001 23.9119 219.018 23.9121H230.162C230.179 23.9123 230.193 23.926 230.193 23.9434V27.0664C230.193 27.0839 230.179 27.0985 230.162 27.0986H219.016C218.999 27.0989 218.985 27.1127 218.985 27.1299V34.5371C218.985 34.5545 218.999 34.569 219.016 34.5693H231.968C231.985 34.5695 231.999 34.5834 231.999 34.6006V37.6729C231.999 37.6903 231.986 37.7049 231.968 37.7051H215.732C215.714 37.705 215.7 37.6904 215.7 37.6729V13.4297C215.7 13.4124 215.715 13.3985 215.732 13.3984H231.513ZM29.7622 27.9971H28.2261V29.9912H30.5268L37.3052 23.5371H44.1655C44.095 22.8608 43.9863 22.1964 43.8452 21.543H36.5405L29.7622 27.9971ZM131.953 19.7314L128.4 28.4463C128.393 28.462 128.4 28.479 128.417 28.4844C128.421 28.4844 128.425 28.4863 128.428 28.4863H135.409C135.426 28.4863 135.439 28.4719 135.439 28.4561C135.439 28.4529 135.439 28.4495 135.437 28.4463L132.011 19.7314L132.009 19.7334C132.004 19.7178 131.986 19.7106 131.97 19.7158C131.963 19.7193 131.956 19.7246 131.953 19.7314ZM13.3589 11.3057C12.6426 11.9205 11.9717 12.5864 11.3559 13.2998H24.7876V15.2734H10.2837V21.1533H17.5366V22.9082H10.2837V24.9023H26.7827V22.9082H19.5298V21.1533H26.7827V11.3057H13.3589ZM29.7622 17.8203H28.2261V19.8145H30.5268L37.3052 13.3604H39.0923V12.6074C38.6778 12.1724 38.2436 11.7589 37.7886 11.3662H36.5405L29.7622 17.8203ZM24.7856 19.1611H12.2788V17.2676H24.7856V19.1611Z" fill="var(--fill-0, #F7F5F2)"/>
</svg>
